<svg xmlns="http://www.w3.org/2000/svg" aria-hidden="true" style="position:absolute;width:0;height:0;overflow:hidden"><defs><symbol id="icon-form-mail" viewBox="0 0 18 24"><path d="M15 6H3c-.825 0-1.493.675-1.493 1.5l-.008 9c0 .825.675 1.5 1.5 1.5h12c.825 0 1.5-.675 1.5-1.5v-9c0-.825-.675-1.5-1.5-1.5zm-.3 3.188-5.303 3.315a.758.758 0 0 1-.795 0L3.299 9.188a.637.637 0 1 1 .675-1.08l5.025 3.143 5.025-3.143a.637.637 0 1 1 .675 1.08z"/></symbol><symbol id="icon-form-name" viewBox="0 0 24 24"><path d="M12 12c2.21 0 4-1.79 4-4s-1.79-4-4-4-4 1.79-4 4 1.79 4 4 4zm0 2c-2.67 0-8 1.34-8 4v1c0 .55.45 1 1 1h14c.55 0 1-.45 1-1v-1c0-2.66-5.33-4-8-4z"/></symbol><symbol id="icon-form-phone" viewBox="0 0 18 24"><path d="m14.726 13.865-1.838-.21a1.44 1.44 0 0 0-1.187.412l-1.332 1.332A10.888 10.888 0 0 1 5.6 10.63l1.339-1.339c.311-.311.463-.745.413-1.187l-.21-1.824a1.448 1.448 0 0 0-1.44-1.281H4.45c-.818 0-1.498.68-1.447 1.498.384 6.18 5.326 11.116 11.499 11.499.818.051 1.498-.63 1.498-1.447v-1.252a1.435 1.435 0 0 0-1.274-1.433z"/></symbol></defs></svg>